<svg xmlns="http://www.w3.org/2000/svg" xmlns:xlink="http://www.w3.org/1999/xlink" width="52.913" height="52.913" viewBox="0 0 14 14"><defs><linearGradient id="b"><stop offset="0" stop-color="#2d6af6"/><stop offset="1" stop-color="#a3bfff"/></linearGradient><linearGradient id="a"><stop offset="0" stop-color="#d9d9d9"/><stop offset="1" stop-color="#898989"/></linearGradient><linearGradient xlink:href="#a" id="c" x1="12.136" x2="22.002" y1="11.36" y2="21.328" gradientTransform="translate(58.102 14.837)" gradientUnits="userSpaceOnUse"/><linearGradient xlink:href="#b" id="d" x1="12.106" x2="22.002" y1="11.39" y2="21.298" gradientTransform="translate(53.106 14.844)" gradientUnits="userSpaceOnUse"/></defs><path fill="none" d="M0 0h14v14H0z"/><g color="#000"><path fill="url(#c)" d="M75.078 26.174c-.634 0-1.27.12-1.866.358a5.6 5.6 0 0 1 1.598 1.642 2.987 2.987 0 0 1 2.389.873l1.414-1.414a4.984 4.984 0 0 0-3.535-1.46zm-4.425 2.67c-.986 1.885-.69 4.28.89 5.86a5.014 5.014 0 0 0 7.07 0l-1.414-1.415a2.984 2.984 0 0 1-4.242 0 2.984 2.984 0 0 1-.706-3.14 2.396 2.396 0 0 0-1.598-1.306z" style="-inkscape-stroke:none" transform="translate(-64.85 -24.173)"/><path fill="url(#d)" d="M70.082 26.174v2a2.992 2.992 0 0 1 2.944 2.416c.11.554.06 1.105-.12 1.604a2.39 2.39 0 0 0 1.6 1.305 4.99 4.99 0 0 0 .48-3.3 5.011 5.011 0 0 0-4.904-4.025zm-3.535 1.465a5.011 5.011 0 0 0-.621 6.314 5.009 5.009 0 0 0 6.023 1.859 5.604 5.604 0 0 1-1.6-1.649 2.987 2.987 0 0 1-2.76-1.321 2.992 2.992 0 0 1 .372-3.79z" paint-order="markers stroke fill" style="-inkscape-stroke:none" transform="translate(-64.85 -24.173)"/></g></svg>